<?xml version="1.0" encoding="UTF-8" standalone="no"?>
<!DOCTYPE svg PUBLIC "-//W3C//DTD SVG 1.1//EN" "http://www.w3.org/Graphics/SVG/1.1/DTD/svg11.dtd">
<svg viewBox="-617 -533 2405 1845" xmlns="http://www.w3.org/2000/svg" xmlns:xlink="http://www.w3.org/1999/xlink">
<rect style="fill:none;fill-opacity:0;stroke-width:4;stroke-dasharray: 8;stroke:#7f7f7f" x="1220" y="-480" width="520" height="300"/>
<rect style="fill:none;fill-opacity:0;stroke-width:4;stroke-dasharray: 8;stroke:#7f7f7f" x="-560" y="-180" width="480" height="240"/>
<line style="fill:none;fill-opacity:0;stroke-width:4;stroke:#5ba215" x1="1400" y1="-222" x2="1400" y2="122"/>
<line style="fill:none;fill-opacity:0;stroke-width:4;stroke:#5ba215" x1="1600" y1="-222" x2="1600" y2="542"/>
<line style="fill:none;fill-opacity:0;stroke-width:4;stroke:#5ba215" x1="1500" y1="-222" x2="1500" y2="222"/>
<rect style="fill:#fff;stroke-width:4;stroke:#000" x="1260" y="-320" width="400" height="60"/>
<rect style="fill:#fff;stroke-width:4;stroke:#000" x="1280" y="-300" width="400" height="60"/>
<rect style="fill:none;fill-opacity:0;stroke-width:4;stroke-dasharray: 8;stroke:#7f7f7f" x="-40" y="460" width="60" height="220"/>
<rect style="fill:#f15f74;stroke-width:2.35099e-037;stroke:#a020f0" x="0" y="420" width="360" height="420"/>
<rect style="fill:#fff;stroke-width:2.35099e-037;stroke:#a020f0" x="20" y="440" width="320" height="260"/>
<rect style="fill:#98cb4a;stroke-width:2.35099e-037;stroke:#5481e6" x="40" y="460" width="40" height="41.3333"/>
<rect style="fill:#5481e6;stroke-width:2.35099e-037;stroke:#5481e6" x="100" y="460" width="40" height="41.3333"/>
<rect style="fill:#5481e6;stroke-width:2.35099e-037;stroke:#5481e6" x="160" y="460" width="40" height="41.3333"/>
<rect style="fill:#5481e6;stroke-width:2.35099e-037;stroke:#5481e6" x="220" y="460" width="40" height="41.3333"/>
<rect style="fill:#5481e6;stroke-width:2.35099e-037;stroke:#5481e6" x="280" y="460" width="40" height="41.3333"/>
<rect style="fill:#5481e6;stroke-width:2.35099e-037;stroke:#5481e6" x="40" y="520" width="40" height="41.3333"/>
<rect style="fill:#5481e6;stroke-width:2.35099e-037;stroke:#5481e6" x="100" y="520" width="40" height="41.3333"/>
<rect style="fill:#5481e6;stroke-width:2.35099e-037;stroke:#5481e6" x="160" y="520" width="40" height="41.3333"/>
<rect style="fill:#5481e6;stroke-width:2.35099e-037;stroke:#5481e6" x="220" y="520" width="40" height="41.3333"/>
<rect style="fill:#5481e6;stroke-width:2.35099e-037;stroke:#5481e6" x="280" y="520" width="40" height="41.3333"/>
<rect style="fill:#5481e6;stroke-width:2.35099e-037;stroke:#5481e6" x="40" y="580" width="40" height="41.3333"/>
<rect style="fill:#5481e6;stroke-width:2.35099e-037;stroke:#5481e6" x="100" y="580" width="40" height="41.3333"/>
<rect style="fill:#5481e6;stroke-width:2.35099e-037;stroke:#5481e6" x="160" y="580" width="40" height="41.3333"/>
<rect style="fill:#5481e6;stroke-width:2.35099e-037;stroke:#5481e6" x="220" y="580" width="40" height="41.3333"/>
<rect style="fill:#5481e6;stroke-width:2.35099e-037;stroke:#5481e6" x="280" y="580" width="40" height="41.3333"/>
<rect style="fill:#5481e6;stroke-width:2.35099e-037;stroke:#5481e6" x="40" y="640" width="40" height="41.3333"/>
<rect style="fill:#5481e6;stroke-width:2.35099e-037;stroke:#5481e6" x="100" y="640" width="40" height="41.3333"/>
<rect style="fill:#5481e6;stroke-width:2.35099e-037;stroke:#5481e6" x="160" y="640" width="40" height="41.3333"/>
<rect style="fill:#5481e6;stroke-width:2.35099e-037;stroke:#5481e6" x="220" y="640" width="40" height="41.3333"/>
<rect style="fill:#5481e6;stroke-width:2.35099e-037;stroke:#5481e6" x="280" y="640" width="40" height="41.3333"/>
 <g>
  <g>
    <rect style="fill:none;fill-opacity:0;stroke-width:2;stroke:#fff" x="20" y="720" width="140" height="38"/>
    <rect style="fill:none;fill-opacity:0;stroke-width:2.35099e-037;stroke:#fff" x="20" y="760" width="320" height="80"/>
    <rect style="fill:none;fill-opacity:0;stroke-width:2;stroke:#fff" x="200" y="720" width="140" height="38"/>
    <rect style="fill:#f15f74;stroke-width:2.35099e-037;stroke:#f15f74" x="0" y="356" width="360" height="60"/>
    <rect style="fill:none;fill-opacity:0;stroke-width:2.35099e-037;stroke:#000" x="-200" y="540" width="152.6" height="60"/>
  </g>
  <g>
    <rect style="fill:none;fill-opacity:0;stroke-width:4;stroke-dasharray: 8;stroke:#7f7f7f" x="520" y="460" width="60" height="220"/>
    <rect style="fill:#f15f74;stroke-width:2.35099e-037;stroke:#a020f0" x="560" y="420" width="360" height="420"/>
    <rect style="fill:#fff;stroke-width:2.35099e-037;stroke:#a020f0" x="580" y="440" width="320" height="260"/>
    <rect style="fill:#5481e6;stroke-width:2.35099e-037;stroke:#5481e6" x="600" y="460" width="40" height="41.3333"/>
    <rect style="fill:#5481e6;stroke-width:2.35099e-037;stroke:#5481e6" x="660" y="460" width="40" height="41.3333"/>
    <rect style="fill:#5481e6;stroke-width:2.35099e-037;stroke:#5481e6" x="720" y="460" width="40" height="41.3333"/>
    <rect style="fill:#5481e6;stroke-width:2.35099e-037;stroke:#5481e6" x="780" y="460" width="40" height="41.3333"/>
    <rect style="fill:#5481e6;stroke-width:2.35099e-037;stroke:#5481e6" x="840" y="460" width="40" height="41.3333"/>
    <rect style="fill:#5481e6;stroke-width:2.35099e-037;stroke:#5481e6" x="600" y="520" width="40" height="41.3333"/>
    <rect style="fill:#5481e6;stroke-width:2.35099e-037;stroke:#5481e6" x="660" y="520" width="40" height="41.3333"/>
    <rect style="fill:#5481e6;stroke-width:2.35099e-037;stroke:#5481e6" x="720" y="520" width="40" height="41.3333"/>
    <rect style="fill:#5481e6;stroke-width:2.35099e-037;stroke:#5481e6" x="780" y="520" width="40" height="41.3333"/>
    <rect style="fill:#5481e6;stroke-width:2.35099e-037;stroke:#5481e6" x="840" y="520" width="40" height="41.3333"/>
    <rect style="fill:#98cb4a;stroke-width:2.35099e-037;stroke:#5481e6" x="600" y="580" width="40" height="41.3333"/>
    <rect style="fill:#5481e6;stroke-width:2.35099e-037;stroke:#5481e6" x="660" y="580" width="40" height="41.3333"/>
    <rect style="fill:#5481e6;stroke-width:2.35099e-037;stroke:#5481e6" x="720" y="580" width="40" height="41.3333"/>
    <rect style="fill:#5481e6;stroke-width:2.35099e-037;stroke:#5481e6" x="780" y="580" width="40" height="41.3333"/>
    <rect style="fill:#5481e6;stroke-width:2.35099e-037;stroke:#5481e6" x="840" y="580" width="40" height="41.3333"/>
    <rect style="fill:#5481e6;stroke-width:2.35099e-037;stroke:#5481e6" x="600" y="640" width="40" height="41.3333"/>
    <rect style="fill:#5481e6;stroke-width:2.35099e-037;stroke:#5481e6" x="660" y="640" width="40" height="41.3333"/>
    <rect style="fill:#5481e6;stroke-width:2.35099e-037;stroke:#5481e6" x="720" y="640" width="40" height="41.3333"/>
    <rect style="fill:#5481e6;stroke-width:2.35099e-037;stroke:#5481e6" x="780" y="640" width="40" height="41.3333"/>
    <rect style="fill:#5481e6;stroke-width:2.35099e-037;stroke:#5481e6" x="840" y="640" width="40" height="41.3333"/>
  </g>
  <g>
    <rect style="fill:none;fill-opacity:0;stroke-width:2;stroke:#fff" x="580" y="720" width="140" height="38"/>
	<rect style="fill:none;fill-opacity:0;stroke-width:2.35099e-037;stroke:#fff" x="580" y="760" width="320" height="80"/>
    <rect style="fill:none;fill-opacity:0;stroke-width:2;stroke:#fff" x="760" y="720" width="140" height="38"/>
    <rect style="fill:#f15f74;stroke-width:2.35099e-037;stroke:#f15f74" x="560" y="356" width="360" height="60"/>
    <rect style="fill:none;fill-opacity:0;stroke-width:2.35099e-037;stroke:#000" x="360" y="540" width="152.6" height="60"/>
  </g>
  <g>
    <rect style="fill:none;fill-opacity:0;stroke-width:4;stroke-dasharray: 8;stroke:#7f7f7f" x="1080" y="460" width="60" height="220"/>
    <rect style="fill:#f15f74;stroke-width:2.35099e-037;stroke:#a020f0" x="1120" y="420" width="360" height="420"/>
    <rect style="fill:#fff;stroke-width:2.35099e-037;stroke:#a020f0" x="1140" y="440" width="320" height="260"/>
    <rect style="fill:#5481e6;stroke-width:2.35099e-037;stroke:#5481e6" x="1160" y="460" width="40" height="41.3333"/>
    <rect style="fill:#5481e6;stroke-width:2.35099e-037;stroke:#5481e6" x="1220" y="460" width="40" height="41.3333"/>
    <rect style="fill:#5481e6;stroke-width:2.35099e-037;stroke:#5481e6" x="1280" y="460" width="40" height="41.3333"/>
    <rect style="fill:#5481e6;stroke-width:2.35099e-037;stroke:#5481e6" x="1340" y="460" width="40" height="41.3333"/>
    <rect style="fill:#5481e6;stroke-width:2.35099e-037;stroke:#5481e6" x="1400" y="460" width="40" height="41.3333"/>
    <rect style="fill:#5481e6;stroke-width:2.35099e-037;stroke:#5481e6" x="1160" y="520" width="40" height="41.3333"/>
    <rect style="fill:#5481e6;stroke-width:2.35099e-037;stroke:#5481e6" x="1220" y="520" width="40" height="41.3333"/>
    <rect style="fill:#5481e6;stroke-width:2.35099e-037;stroke:#5481e6" x="1280" y="520" width="40" height="41.3333"/>
    <rect style="fill:#5481e6;stroke-width:2.35099e-037;stroke:#5481e6" x="1340" y="520" width="40" height="41.3333"/>
    <rect style="fill:#98cb4a;stroke-width:2.35099e-037;stroke:#5481e6" x="1400" y="520" width="40" height="41.3333"/>
    <rect style="fill:#5481e6;stroke-width:2.35099e-037;stroke:#5481e6" x="1160" y="580" width="40" height="41.3333"/>
    <rect style="fill:#5481e6;stroke-width:2.35099e-037;stroke:#5481e6" x="1220" y="580" width="40" height="41.3333"/>
    <rect style="fill:#5481e6;stroke-width:2.35099e-037;stroke:#5481e6" x="1280" y="580" width="40" height="41.3333"/>
    <rect style="fill:#5481e6;stroke-width:2.35099e-037;stroke:#5481e6" x="1340" y="580" width="40" height="41.3333"/>
    <rect style="fill:#5481e6;stroke-width:2.35099e-037;stroke:#5481e6" x="1400" y="580" width="40" height="41.3333"/>
    <rect style="fill:#5481e6;stroke-width:2.35099e-037;stroke:#5481e6" x="1160" y="640" width="40" height="41.3333"/>
    <rect style="fill:#5481e6;stroke-width:2.35099e-037;stroke:#5481e6" x="1220" y="640" width="40" height="41.3333"/>
    <rect style="fill:#5481e6;stroke-width:2.35099e-037;stroke:#5481e6" x="1280" y="640" width="40" height="41.3333"/>
    <rect style="fill:#5481e6;stroke-width:2.35099e-037;stroke:#5481e6" x="1340" y="640" width="40" height="41.3333"/>
    <rect style="fill:#5481e6;stroke-width:2.35099e-037;stroke:#5481e6" x="1400" y="640" width="40" height="41.3333"/>
  </g>
  <g>
    <rect style="fill:none;fill-opacity:0;stroke-width:2;stroke:#fff" x="1140" y="720" width="140" height="38"/>
    <rect style="fill:none;fill-opacity:0;stroke-width:2.35099e-037;stroke:#fff" x="1140" y="760" width="320" height="80"/>
    <rect style="fill:none;fill-opacity:0;stroke-width:2;stroke:#fff" x="1320" y="720" width="140" height="38"/>
    <rect style="fill:#f15f74;stroke-width:2.35099e-037;stroke:#f15f74" x="1120" y="356" width="360" height="60"/>
    <rect style="fill:none;fill-opacity:0;stroke-width:2.35099e-037;stroke:#000" x="920" y="540" width="152.6" height="60"/>
  </g>
  <g>
    <ellipse style="fill:#839098;stroke-width:4;stroke:#43515b" cx="740.161" cy="1140" rx="130" ry="120"/>
    <line style="fill:none;fill-opacity:0;stroke-width:4;stroke:#43515b" x1="740.161" y1="1020" x2="740.018" y2="860"/>
    <path style="fill:#839098;stroke-width:4;stroke:#43515b" d="M 740.002 842 C 744.502,841.996 749.006,846.492 749.01,850.992 C 749.014,855.492 744.518,859.996 740.018,860 C 735.518,860.004 731.014,855.508 731.01,851.008 C 731.006,846.508 735.502,842.004 740.002,842z"/>
    <line style="fill:none;fill-opacity:0;stroke-width:4;stroke:#43515b" x1="620.057" y1="1094.08" x2="197.32" y2="850"/>
    <path style="fill:#839098;stroke-width:4;stroke:#43515b" d="M 181.732 841 C 183.982,837.103 190.129,835.456 194.026,837.706 C 197.923,839.956 199.57,846.103 197.32,850 C 195.07,853.897 188.923,855.544 185.026,853.294 C 181.129,851.044 179.482,844.897 181.732,841z"/>
    <line style="fill:none;fill-opacity:0;stroke-width:4;stroke:#43515b" x1="860.266" y1="1094.08" x2="1282.68" y2="850.006"/>
    <path style="fill:#839098;stroke-width:4;stroke:#43515b" d="M 1298.27 841.001 C 1300.52,844.897 1298.87,851.045 1294.98,853.296 C 1291.08,855.547 1284.93,853.902 1282.68,850.006 C 1280.43,846.109 1282.08,839.962 1285.97,837.71 C 1289.87,835.459 1296.02,837.104 1298.27,841.001z"/>
  </g>
  <g>
    <rect style="fill:#f15f74;stroke-width:2.35099e-037;stroke:#f15f74" x="-500" y="-130" width="360" height="60"/>
    <rect style="fill:#f15f74;stroke-width:2.35099e-037;stroke:#f15f74" x="-500" y="-61" width="360" height="60"/>
    <rect style="fill:#f15f74;stroke-width:2.35099e-037;stroke:#f15f74" x="1300" y="-130" width="400" height="60"/>

    <line style="fill:none;fill-opacity:0;stroke-width:4;stroke-dasharray: 14;stroke:#913ccd" x1="-320" y1="21.4721" x2="-320" y2="1140"/>
    <line style="fill:none;fill-opacity:0;stroke-width:4;stroke-dasharray: 14;stroke:#913ccd" x1="587.689" y1="1140" x2="-320" y2="1140"/>
    <polygon style="fill:none;stroke-width:4;stroke:#913ccd" points="-311,21.4721 -320,3.47214 -329,21.4721"/>
    <polygon style="fill:none;stroke-width:4;stroke:#913ccd" points="587.689,1149 605.689,1140 587.689,1131"/>
  </g>
  <g>
    <line style="fill:none;fill-opacity:0;stroke-width:4;stroke-dasharray: 14;stroke:#913ccd" x1="-117.528" y1="-100" x2="1275.53" y2="-100"/>
    <polygon style="fill:none;fill-opacity:0;stroke-width:4;stroke:#913ccd" points="-117.528,-109 -135.528,-100 -117.528,-91"/>
    <polygon style="fill:none;fill-opacity:0;stroke-width:4;stroke:#913ccd" points="1275.53,-90 1295.53,-100 1275.53,-110"/>
  </g>
  <g>
    <rect style="fill:#fff" x="1300" y="-280" width="400" height="60"/>
    <rect style="fill:none;fill-opacity:0;stroke-width:4;stroke:#000" x="1300" y="-280" width="400" height="60"/>
  </g>
  <g>
    <line style="fill:none;fill-opacity:0;stroke-width:4;stroke:#5ba215" x1="1602" y1="540.708" x2="1416.01" y2="540.666"/>
    <path style="fill:#5ba215;stroke-width:4;stroke:#5ba215" d="M 1416.01 540.666 C 1416.01,538.166 1418.51,535.666 1421.01,535.667 C 1423.51,535.667 1426.01,538.168 1426.01,540.668 C 1426.01,543.168 1423.5,545.667 1421,545.667 C 1418.5,545.666 1416.01,543.166 1416.01,540.666z"/>
  </g>
  <g>
    <line style="fill:none;fill-opacity:0;stroke-width:4;stroke:#5ba215" x1="624" y1="600.645" x2="538.04" y2="600.723"/>
    <path style="fill:#5ba215" d="M 624 600.645 C 624.002,603.145 621.505,605.647 619.005,605.649 C 616.505,605.652 614.002,603.154 614,600.654 C 613.998,598.154 616.495,595.652 618.995,595.649 C 621.495,595.647 623.998,598.145 624,600.645z"/>
    <path style="fill:none;fill-opacity:0;stroke-width:4;stroke:#5ba215" d="M 624 600.645 C 624.002,603.145 621.505,605.647 619.005,605.649 C 616.505,605.652 614.002,603.154 614,600.654 C 613.998,598.154 616.495,595.652 618.995,595.649 C 621.495,595.647 623.998,598.145 624,600.645"/>
  </g>
  <line style="fill:none;fill-opacity:0;stroke-width:4;stroke:#5ba215" x1="540" y1="602" x2="540" y2="218"/>
  <g>
    <line style="fill:none;fill-opacity:0;stroke-width:4;stroke:#5ba215" x1="64.0266" y1="479.967" x2="-102" y2="480"/>
    <path style="fill:#5ba215" d="M 64.0266 479.967 C 64.0271,482.467 61.5276,484.967 59.0276,484.968 C 56.5276,484.968 54.0271,482.469 54.0266,479.969 C 54.0261,477.469 56.5256,474.968 59.0256,474.968 C 61.5256,474.967 64.0261,477.467 64.0266,479.967z"/>
    <path style="fill:none;fill-opacity:0;stroke-width:4;stroke:#5ba215" d="M 64.0266 479.967 C 64.0271,482.467 61.5276,484.967 59.0276,484.968 C 56.5276,484.968 54.0271,482.469 54.0266,479.969 C 54.0261,477.469 56.5256,474.968 59.0256,474.968 C 61.5256,474.967 64.0261,477.467 64.0266,479.967"/>
  </g>
  <line style="fill:none;fill-opacity:0;stroke-width:4;stroke:#5ba215" x1="-100" y1="482" x2="-100" y2="118"/>
  <g>
  <rect style="fill:#913ccd;stroke-width:2.35099e-037;stroke:#f15f74" x="-560" y="-280" width="480" height="80"/>
  <line style="fill:none;fill-opacity:0;stroke-width:4;stroke:#5ba215" x1="-102" y1="120" x2="1402" y2="120"/>
  <line style="fill:none;fill-opacity:0;stroke-width:4;stroke:#5ba215" x1="538" y1="220" x2="1502" y2="220"/>
  <rect style="fill:none;fill-opacity:0;stroke-width:2.35099e-037;stroke:#000" x="1260" y="-460" width="440" height="120"/>
  <rect style="fill:#98cb4a;stroke-width:2.35099e-037;stroke:#000" x="1660" y="-260" width="60" height="51.9778"/>
  </g>
 </g>
<!-- Text -->
 <g style="font-style:normal;font-weight:normal;text-anchor:middle;font-family:sans-serif;">
  <g style="fill:#fff">
   <g font-size="20.32" style="font-family:monospace;">
    <text x="90" y="743.5">etcd</text>
    <text x="650" y="743.5">etcd</text>
    <text x="1210" y="743.5">etcd</text>
   </g>
   <g font-size="20.32">
    <text x="270" y="743.7">Docker</text>
    <text x="830" y="743.7">Docker</text>
    <text x="1390" y="743.7">Docker</text>
   </g>
   <g font-size="27.0933">
    <text x="180" y="808.217">CoreOS host</text>
    <text x="740" y="808.217">CoreOS host</text>
    <text x="1300" y="808.217">CoreOS host</text>
   </g>
   <g font-size="29.3511">
    <text x="180" y="394.906">Host #1</text>
    <text x="740" y="394.906">Host #2</text>
    <text x="1300" y="394.906">Host #3</text>
   </g>
    <text font-size="45.1556" style="font-weight:700!important; font-family:monospace;" x="740.161" y="1153.68">
      <tspan x="740.161" y="1153.68">etcd</tspan>
    </text>
    <text font-size="38.3822" x="-320" y="-88.3389" style="font-family:monospace;">
      <tspan x="-320" y="-88.3389">fleetctl</tspan>
    </text>
    <text font-size="38.3822" x="-320" y="-19.3389" style="font-family:monospace;">
      <tspan x="-320" y="-19.3389">etcdctl</tspan>
    </text>
    <text font-size="38.3822" x="1500" y="-88.3389" style="font-family:monospace;">
      <tspan x="1500" y="-88.3389">fleetd</tspan>
    </text>
    <text font-size="38.3822" x="1690" y="-222.35">
      <tspan x="1690" y="-222.35">n</tspan>
    </text>
  </g>
  <g style="fill:#000">
    <text font-size="38.3822" x="1500" y="-238.339">
      <tspan x="1500" y="-238.339">Services</tspan>
    </text>
    <text font-size="38.3822" x="1480" y="-412.328">
      <tspan x="1480" y="-412.328">systemd</tspan>
      <tspan x="1480" y="-364.35">service files pool</tspan>
    </text>
   <g font-size="23.7067" style="text-anchor:end!important;">
    <text x="-47.4" y="562.367">
      <tspan x="-47.4" y="562.367">Docker</tspan>
      <tspan x="-47.4" y="592"> containers</tspan>
    </text>
    <text x="512.6" y="562.367">
      <tspan x="512.6" y="562.367">Docker</tspan>
      <tspan x="512.6" y="592"> containers</tspan>
    </text>
    <text x="1072.6" y="562.367">
      <tspan x="1072.6" y="562.367">Docker</tspan>
      <tspan x="1072.6" y="592"> containers</tspan>
    </text>
   </g>
    <text font-size="40.64" style="fill:#fff" x="-320" y="-227.65">
      <tspan x="-320" y="-227.65">Local machine</tspan>
    </text>
  </g>
 </g>
</svg>